# xmcd
#
# Track frame offsets:
#	150
#	17403
#	28950
#	47708
#	60610
#	71885
#	92853
#	104788
#	117458
#	131055
#	147825
#	164548
#
# Disc length: 2473 seconds
#
# Revision: 1
# Processed by: cddbd v1.5.1PL0 Copyright (c) Steve Scherf et al.
# Submitted via: CDex 1.50Beta5
#
DISCID=b709a70c
DTITLE=KENZI&THE TRIPS - FROM RABBIT HOUSE
DYEAR=1989
DGENRE=Pop
TTITLE0=プライベート・タイム
TTITLE1=ダイアナ
TTITLE2=フロム・ラビット・ハウス
TTITLE3=トリップ・ロール
TTITLE4=ライブス
TTITLE5=バラードに捧ぐ
TTITLE6=チーセリタ
TTITLE7=フラッシュ・アウト
TTITLE8=MR.トーキョー
TTITLE9=モンキー・サクセス
TTITLE10=・レコーダー
TTITLE11=グッド・ナイト・ベイビー
EXTD=
EXTT0=
EXTT1=
EXTT2=
EXTT3=
EXTT4=
EXTT5=
EXTT6=
EXTT7=
EXTT8=
EXTT9=
EXTT10=
EXTT11=
PLAYORDER=
